Coordinates
version=1
nRows=40
nColumns=30
inDegrees=yes

Units are S.I. units (second, meters, Newtons, ...)
Angles are in degrees.

endheader
time	floatyaw	floatroll	floatpitch	floatx	floaty	floatz	pro_sup_l	deviation_l	flexion_l	cmc_flexion_l	cmc_abduction_l	mp_flexion_l	ip_flexion_l	2mcp_flexion_l	2mcp_abduction_l	2pm_flexion_l	2md_flexion_l	3mcp_flexion_l	3mcp_abduction_l	3pm_flexion_l	3md_flexion_l	4mcp_flexion_l	4mcp_abduction_l	4pm_flexion_l	4md_flexion_l	5mcp_flexion_l	5mcp_abduction_l	5pm_flexion_l	5md_flexion_l
13.000000	3.307552	-2.313296	98.008251	0.051402	-0.098243	0.034061	93.807570	24.072348	-3.829846	8.663251	43.714922	-16.965371	-42.836278	40.623753	3.360054	48.918782	40.009665	45.461299	6.562427	48.376191	47.218150	44.293446	-4.540924	59.903952	53.854562	27.844847	-5.861768	63.449459	48.746178
13.033333	3.307552	-2.313296	98.008251	0.051402	-0.098243	0.034061	93.807570	24.072348	-3.829846	8.663251	43.714922	-16.965371	-42.836278	40.623753	3.360054	48.918782	40.009665	45.461299	6.562427	48.376191	47.218150	44.293446	-4.540924	59.903952	53.854562	27.844847	-5.861768	63.449459	48.746178
13.066667	3.307552	-2.313296	98.008251	0.051402	-0.098243	0.034061	93.807570	24.072348	-3.829846	8.663251	43.714922	-16.965371	-42.836278	40.623753	3.360054	48.918782	40.009665	45.461299	6.562427	48.376191	47.218150	44.293446	-4.540924	59.903952	53.854562	27.844847	-5.861768	63.449459	48.746178
13.100000	3.307552	-2.313296	98.008251	0.051402	-0.098243	0.034061	93.807570	24.072348	-3.829846	8.663251	43.714922	-16.965371	-42.836278	40.623753	3.360054	48.918782	40.009665	45.461299	6.562427	48.376191	47.218150	44.293446	-4.540924	59.903952	53.854562	27.844847	-5.861768	63.449459	48.746178
13.133333	3.307552	-2.313296	98.008251	0.051402	-0.098243	0.034061	93.807570	24.072348	-3.829846	8.663251	43.714922	-16.965371	-42.836278	40.623753	3.360054	48.918782	40.009665	45.461299	6.562427	48.376191	47.218150	44.293446	-4.540924	59.903952	53.854562	27.844847	-5.861768	63.449459	48.746178
13.166667	3.307552	-2.313296	98.008251	0.051402	-0.098243	0.034061	93.807570	24.072348	-3.829846	8.663251	43.714922	-16.965371	-42.836278	40.623753	3.360054	48.918782	40.009665	45.461299	6.562427	48.376191	47.218150	44.293446	-4.540924	59.903952	53.854562	27.844847	-5.861768	63.449459	48.746178
13.200000	3.307552	-2.313296	98.008251	0.051402	-0.098243	0.034061	93.807570	24.072348	-3.829846	8.663251	43.714922	-16.965371	-42.836278	40.623753	3.360054	48.918782	40.009665	45.461299	6.562427	48.376191	47.218150	44.293446	-4.540924	59.903952	53.854562	27.844847	-5.861768	63.449459	48.746178
13.233333	3.307552	-2.313296	98.008251	0.051402	-0.098243	0.034061	93.807570	24.072348	-3.829846	8.663251	43.714922	-16.965371	-42.836278	40.623753	3.360054	48.918782	40.009665	45.461299	6.562427	48.376191	47.218150	44.293446	-4.540924	59.903952	53.854562	27.844847	-5.861768	63.449459	48.746178
13.266667	3.307552	-2.313296	98.008251	0.051402	-0.098243	0.034061	93.807570	24.072348	-3.829846	8.663251	43.714922	-16.965371	-42.836278	40.623753	3.360054	48.918782	40.009665	45.461299	6.562427	48.376191	47.218150	44.293446	-4.540924	59.903952	53.854562	27.844847	-5.861768	63.449459	48.746178
13.300000	3.307552	-2.313296	98.008251	0.051402	-0.098243	0.034061	93.807570	24.072348	-3.829846	8.663251	43.714922	-16.965371	-42.836278	40.623753	3.360054	48.918782	40.009665	45.461299	6.562427	48.376191	47.218150	44.293446	-4.540924	59.903952	53.854562	27.844847	-5.861768	63.449459	48.746178
13.333333	3.307552	-2.313296	98.008251	0.051402	-0.098243	0.034061	93.807570	24.072348	-3.829846	8.663251	43.714922	-16.965371	-42.836278	40.623753	3.360054	48.918782	40.009665	45.461299	6.562427	48.376191	47.218150	44.293446	-4.540924	59.903952	53.854562	27.844847	-5.861768	63.449459	48.746178
13.366667	3.307552	-2.313296	98.008251	0.051402	-0.098243	0.034061	93.807570	24.072348	-3.829846	8.663251	43.714922	-16.965371	-42.836278	40.623753	3.360054	48.918782	40.009665	45.461299	6.562427	48.376191	47.218150	44.293446	-4.540924	59.903952	53.854562	27.844847	-5.861768	63.449459	48.746178
13.400000	3.307552	-2.313296	98.008251	0.051402	-0.098243	0.034061	93.807570	24.072348	-3.829846	8.663251	43.714922	-16.965371	-42.836278	40.623753	3.360054	48.918782	40.009665	45.461299	6.562427	48.376191	47.218150	44.293446	-4.540924	59.903952	53.854562	27.844847	-5.861768	63.449459	48.746178
13.433333	3.307552	-2.313296	98.008251	0.051402	-0.098243	0.034061	93.807570	24.072348	-3.829846	8.663251	43.714922	-16.965371	-42.836278	40.623753	3.360054	48.918782	40.009665	45.461299	6.562427	48.376191	47.218150	44.293446	-4.540924	59.903952	53.854562	27.844847	-5.861768	63.449459	48.746178
13.466667	3.307552	-2.313296	98.008251	0.051402	-0.098243	0.034061	93.807570	24.072348	-3.829846	8.663251	43.714922	-16.965371	-42.836278	40.623753	3.360054	48.918782	40.009665	45.461299	6.562427	48.376191	47.218150	44.293446	-4.540924	59.903952	53.854562	27.844847	-5.861768	63.449459	48.746178
13.500000	3.307552	-2.313296	98.008251	0.051402	-0.098243	0.034061	93.807570	24.072348	-3.829846	8.663251	43.714922	-16.965371	-42.836278	40.623753	3.360054	48.918782	40.009665	45.461299	6.562427	48.376191	47.218150	44.293446	-4.540924	59.903952	53.854562	27.844847	-5.861768	63.449459	48.746178
13.533333	3.307552	-2.313296	98.008251	0.051402	-0.098243	0.034061	93.807570	24.072348	-3.829846	8.663251	43.714922	-16.965371	-42.836278	40.623753	3.360054	48.918782	40.009665	45.461299	6.562427	48.376191	47.218150	44.293446	-4.540924	59.903952	53.854562	27.844847	-5.861768	63.449459	48.746178
13.566667	3.307552	-2.313296	98.008251	0.051402	-0.098243	0.034061	93.807570	24.072348	-3.829846	8.663251	43.714922	-16.965371	-42.836278	40.623753	3.360054	48.918782	40.009665	45.461299	6.562427	48.376191	47.218150	44.293446	-4.540924	59.903952	53.854562	27.844847	-5.861768	63.449459	48.746178
13.600000	3.307552	-2.313296	98.008251	0.051402	-0.098243	0.034061	93.807570	24.072348	-3.829846	8.663251	43.714922	-16.965371	-42.836278	40.623753	3.360054	48.918782	40.009665	45.461299	6.562427	48.376191	47.218150	44.293446	-4.540924	59.903952	53.854562	27.844847	-5.861768	63.449459	48.746178
13.633333	3.307552	-2.313296	98.008251	0.051402	-0.098243	0.034061	93.807570	24.072348	-3.829846	8.663251	43.714922	-16.965371	-42.836278	40.623753	3.360054	48.918782	40.009665	45.461299	6.562427	48.376191	47.218150	44.293446	-4.540924	59.903952	53.854562	27.844847	-5.861768	63.449459	48.746178
13.666667	3.307552	-2.313296	98.008251	0.051402	-0.098243	0.034061	93.807570	24.072348	-3.829846	8.663251	43.714922	-16.965371	-42.836278	40.623753	3.360054	48.918782	40.009665	45.461299	6.562427	48.376191	47.218150	44.293446	-4.540924	59.903952	53.854562	27.844847	-5.861768	63.449459	48.746178
13.700000	3.307552	-2.313296	98.008251	0.051402	-0.098243	0.034061	93.807570	24.072348	-3.829846	8.663251	43.714922	-16.965371	-42.836278	40.623753	3.360054	48.918782	40.009665	45.461299	6.562427	48.376191	47.218150	44.293446	-4.540924	59.903952	53.854562	27.844847	-5.861768	63.449459	48.746178
13.733333	3.307552	-2.313296	98.008251	0.051402	-0.098243	0.034061	93.807570	24.072348	-3.829846	8.663251	43.714922	-16.965371	-42.836278	40.623753	3.360054	48.918782	40.009665	45.461299	6.562427	48.376191	47.218150	44.293446	-4.540924	59.903952	53.854562	27.844847	-5.861768	63.449459	48.746178
13.766667	3.307552	-2.313296	98.008251	0.051402	-0.098243	0.034061	93.807570	24.072348	-3.829846	8.663251	43.714922	-16.965371	-42.836278	40.623753	3.360054	48.918782	40.009665	45.461299	6.562427	48.376191	47.218150	44.293446	-4.540924	59.903952	53.854562	27.844847	-5.861768	63.449459	48.746178
13.800000	3.307552	-2.313296	98.008251	0.051402	-0.098243	0.034061	93.807570	24.072348	-3.829846	8.663251	43.714922	-16.965371	-42.836278	40.623753	3.360054	48.918782	40.009665	45.461299	6.562427	48.376191	47.218150	44.293446	-4.540924	59.903952	53.854562	27.844847	-5.861768	63.449459	48.746178
13.833333	3.307552	-2.313296	98.008251	0.051402	-0.098243	0.034061	93.807570	24.072348	-3.829846	8.663251	43.714922	-16.965371	-42.836278	40.623753	3.360054	48.918782	40.009665	45.461299	6.562427	48.376191	47.218150	44.293446	-4.540924	59.903952	53.854562	27.844847	-5.861768	63.449459	48.746178
13.866667	3.307552	-2.313296	98.008251	0.051402	-0.098243	0.034061	93.807570	24.072348	-3.829846	8.663251	43.714922	-16.965371	-42.836278	40.623753	3.360054	48.918782	40.009665	45.461299	6.562427	48.376191	47.218150	44.293446	-4.540924	59.903952	53.854562	27.844847	-5.861768	63.449459	48.746178
13.900000	3.307552	-2.313296	98.008251	0.051402	-0.098243	0.034061	93.807570	24.072348	-3.829846	8.663251	43.714922	-16.965371	-42.836278	40.623753	3.360054	48.918782	40.009665	45.461299	6.562427	48.376191	47.218150	44.293446	-4.540924	59.903952	53.854562	27.844847	-5.861768	63.449459	48.746178
13.933333	3.307552	-2.313296	98.008251	0.051402	-0.098243	0.034061	93.807570	24.072348	-3.829846	8.663251	43.714922	-16.965371	-42.836278	40.623753	3.360054	48.918782	40.009665	45.461299	6.562427	48.376191	47.218150	44.293446	-4.540924	59.903952	53.854562	27.844847	-5.861768	63.449459	48.746178
13.966667	3.307552	-2.313296	98.008251	0.051402	-0.098243	0.034061	93.807570	24.072348	-3.829846	8.663251	43.714922	-16.965371	-42.836278	40.623753	3.360054	48.918782	40.009665	45.461299	6.562427	48.376191	47.218150	44.293446	-4.540924	59.903952	53.854562	27.844847	-5.861768	63.449459	48.746178
14.000000	-3.995636	-4.876138	96.430707	0.055516	-0.133668	0.040791	85.651840	21.288608	-18.176858	9.340623	18.444214	-34.249671	-55.097702	61.712296	6.504494	55.039461	47.542276	54.380998	4.839553	64.756630	51.944993	51.026510	-6.191880	87.734936	63.477592	49.182353	-4.741418	86.822548	46.995140
14.033333	-3.995636	-4.876138	96.430707	0.055516	-0.133668	0.040791	85.651840	21.288608	-18.176858	9.340623	18.444214	-34.249671	-55.097702	61.712296	6.504494	55.039461	47.542276	54.380998	4.839553	64.756630	51.944993	51.026510	-6.191880	87.734936	63.477592	49.182353	-4.741418	86.822548	46.995140
14.066667	-3.995636	-4.876138	96.430707	0.055516	-0.133668	0.040791	85.651840	21.288608	-18.176858	9.340623	18.444214	-34.249671	-55.097702	61.712296	6.504494	55.039461	47.542276	54.380998	4.839553	64.756630	51.944993	51.026510	-6.191880	87.734936	63.477592	49.182353	-4.741418	86.822548	46.995140
14.100000	-3.995636	-4.876138	96.430707	0.055516	-0.133668	0.040791	85.651840	21.288608	-18.176858	9.340623	18.444214	-34.249671	-55.097702	61.712296	6.504494	55.039461	47.542276	54.380998	4.839553	64.756630	51.944993	51.026510	-6.191880	87.734936	63.477592	49.182353	-4.741418	86.822548	46.995140
14.133333	-3.995636	-4.876138	96.430707	0.055516	-0.133668	0.040791	85.651840	21.288608	-18.176858	9.340623	18.444214	-34.249671	-55.097702	61.712296	6.504494	55.039461	47.542276	54.380998	4.839553	64.756630	51.944993	51.026510	-6.191880	87.734936	63.477592	49.182353	-4.741418	86.822548	46.995140
14.166667	-3.995636	-4.876138	96.430707	0.055516	-0.133668	0.040791	85.651840	21.288608	-18.176858	9.340623	18.444214	-34.249671	-55.097702	61.712296	6.504494	55.039461	47.542276	54.380998	4.839553	64.756630	51.944993	51.026510	-6.191880	87.734936	63.477592	49.182353	-4.741418	86.822548	46.995140
14.200000	-3.995636	-4.876138	96.430707	0.055516	-0.133668	0.040791	85.651840	21.288608	-18.176858	9.340623	18.444214	-34.249671	-55.097702	61.712296	6.504494	55.039461	47.542276	54.380998	4.839553	64.756630	51.944993	51.026510	-6.191880	87.734936	63.477592	49.182353	-4.741418	86.822548	46.995140
14.233333	-3.995636	-4.876138	96.430707	0.055516	-0.133668	0.040791	85.651840	21.288608	-18.176858	9.340623	18.444214	-34.249671	-55.097702	61.712296	6.504494	55.039461	47.542276	54.380998	4.839553	64.756630	51.944993	51.026510	-6.191880	87.734936	63.477592	49.182353	-4.741418	86.822548	46.995140
14.266667	-3.995636	-4.876138	96.430707	0.055516	-0.133668	0.040791	85.651840	21.288608	-18.176858	9.340623	18.444214	-34.249671	-55.097702	61.712296	6.504494	55.039461	47.542276	54.380998	4.839553	64.756630	51.944993	51.026510	-6.191880	87.734936	63.477592	49.182353	-4.741418	86.822548	46.995140
14.300000	-3.995636	-4.876138	96.430707	0.055516	-0.133668	0.040791	85.651840	21.288608	-18.176858	9.340623	18.444214	-34.249671	-55.097702	61.712296	6.504494	55.039461	47.542276	54.380998	4.839553	64.756630	51.944993	51.026510	-6.191880	87.734936	63.477592	49.182353	-4.741418	86.822548	46.995140
